<svg xmlns="http://www.w3.org/2000/svg" viewBox="0 0 256 256">
  <defs>
    <radialGradient id="bg" cx="50%" cy="38%" r="72%">
      <stop offset="0%" stop-color="#5A4033"/>
      <stop offset="58%" stop-color="#35231A"/>
      <stop offset="100%" stop-color="#2A1B14"/>
    </radialGradient>
    <linearGradient id="door" x1="82" y1="44" x2="172" y2="220">
      <stop offset="0%" stop-color="#D6B89A"/>
      <stop offset="100%" stop-color="#8A6A55"/>
    </linearGradient>
    <linearGradient id="light" x1="136" y1="54" x2="210" y2="198">
      <stop offset="0%" stop-color="#FFF4EB"/>
      <stop offset="55%" stop-color="#D6B89A"/>
      <stop offset="100%" stop-color="#8A6A55"/>
    </linearGradient>
    <filter id="shadow" x="-20%" y="-20%" width="140%" height="150%">
      <feDropShadow dx="0" dy="10" stdDeviation="10" flood-color="#000000" flood-opacity="0.38"/>
    </filter>
  </defs>

  <rect width="256" height="256" rx="56" fill="url(#bg)"/>

  <circle cx="128" cy="128" r="94" fill="none" stroke="#C6A98D" stroke-width="4" opacity="0.32"/>
  <circle cx="128" cy="128" r="78" fill="none" stroke="#FFF4EB" stroke-width="2" opacity="0.14"/>

  <g filter="url(#shadow)">
    <path d="M75 54h72c9 0 16 7 16 16v132H75c-9 0-16-7-16-16V70c0-9 7-16 16-16z"
          fill="#211610" stroke="#C6A98D" stroke-width="6"/>
    <path d="M93 74h58v126H93z" fill="url(#door)" opacity="0.95"/>
    <path d="M151 74l49 24v111l-49-9z" fill="url(#light)" stroke="#FFF4EB" stroke-width="5" stroke-linejoin="round"/>
    <circle cx="166" cy="139" r="6" fill="#2A1B14"/>
  </g>

  <path d="M185 55l7 16 16 7-16 7-7 16-7-16-16-7 16-7z" fill="#FFF4EB"/>
  <path d="M54 88l5 11 11 5-11 5-5 11-5-11-11-5 11-5z" fill="#D6B89A"/>
  <path d="M196 172l4 9 9 4-9 4-4 9-4-9-9-4 9-4z" fill="#C6A98D"/>

  <path d="M74 214h116" stroke="#FFF4EB" stroke-width="9" stroke-linecap="round" opacity="0.72"/>
  <path d="M92 226h80" stroke="#C6A98D" stroke-width="6" stroke-linecap="round" opacity="0.5"/>
</svg>
